<?xml version="1.0" encoding="utf-8"?>
<!-- Generator: Adobe Illustrator 21.1.0, SVG Export Plug-In . SVG Version: 6.00 Build 0)  -->
<svg version="1.1" id="Ebene_1" xmlns="http://www.w3.org/2000/svg" xmlns:xlink="http://www.w3.org/1999/xlink" x="0px" y="0px"
	 viewBox="0 0 546.3 325.9" style="enable-background:new 0 0 546.3 325.9;" xml:space="preserve">
<style type="text/css">
	.st0{fill:#293D70;}
	.st1{fill:#4B2A00;}
	.st2{fill:#FFFFFF;}
	.st3{fill:#BB9D71;}
</style>
<g>
	<path class="st0" d="M74.3,168.7C74.3,168.7,74.3,168.7,74.3,168.7C74.3,168.7,74.3,168.7,74.3,168.7
		C74.3,168.7,74.3,168.7,74.3,168.7z"/>
	<g>
		<path class="st1" d="M92.6,174c-7.2-15.2-22.5-23.3-40.8-24.7c-4-0.7-51.8,0-51.8,0s3.4,9.1,8.8,9.8c5.5,0.6,8.1,5.8,8.1,5.8v48.7
			c-3.1,7.1-15.7,6.4-16.4,9.3c-0.1,0.6,4.2,6.2,4.2,6.2s51.6,1.8,64.2-1.9c10.2-3,22-12.2,25.4-24.8C97,191.8,96.6,184.4,92.6,174z
			 M89,198.2c-4,12.9-14.5,23.5-33.3,24.5c-3,0.2-49.7,0.2-49.7,0.2s12.6-3.3,12.9-10.4c0.3-17.8,0-51.6,0-51.5
			c-2.1-7.7-11.5-7.4-12.9-9.3c0-0.1,39.5-0.8,43.7-0.5c15.9,0,26.2,5.9,34.9,18.3C91.1,178.2,91,191.7,89,198.2z"/>
		<path class="st1" d="M58.3,155.8c-2-0.3-32.3-0.2-32.3-0.2v62.4c0,0,29.7,0.3,32,0.1C91.1,214.9,87.7,159.6,58.3,155.8z
			 M59.8,215.5c-2.6,0.6-26.5,0.7-26.5,0.7V161c0,0,20.9,0,28.7,0.1C78.8,161.4,89.1,209,59.8,215.5z"/>
		<path class="st1" d="M201.3,204.1l-6.3-7.7c-5.5,11.6-6.1,19.2-15.3,19.5l-29.9,0.1c0,0,0-22.2,0-22.5c0,0,16.1,0,15.8,0
			c2.5,0.3,4.5,4.3,5.6,6.4c2.4,4.9,4.4,5.6,8.4,9.6l0-34.1l-6.2-7.1c-0.7,3.6-5.2,13.3-11.1,13.9c-1.2,0.1-12.6,0-12.6,0l-0.1-21.4
			c33,0,32.5,0.2,34.4,0.2c0,0,6.7,6.4,6.7,9.7c0,2,9.2,11.6,9.2,11.6l-0.1-26.4l-5-7l-78.7,0c0,0,3.4,9.3,8.8,10
			c5.5,0.6,8.1,5.8,8.1,5.8v48.7c-3.1,7.1-15.7,6.4-16.4,9.3c-0.1,0.6,4.3,6.2,4.3,6.2l80.2,0L201.3,204.1z M194.9,222.5l-55.9,0.2
			v0h-16.7c0,0,12.3-3.1,12.7-10.2c0.3-17.8,0-51.6,0-51.5c-2-7.7-11.6-8.1-13-10.1c0-0.1,71.7,0.1,71.7,0.1V170
			c-3.4-5.1-5.6-11.9-11.8-14.9l-40-0.2v29.1c0,0,20,0.4,22.6-0.1c5-1,9.1-10,9.1-10l-0.2,23.5c-0.2,0.8-3.4-9.6-10.6-9.6
			c-2.3-0.5-20.8-0.3-20.8-0.3v30.3h40.2c7.6-0.3,12.9-16.2,12.9-16.2C195,201.8,194.9,222.5,194.9,222.5z"/>
		<path class="st1" d="M439.2,204.1l-6.3-7.7c-5.5,11.6-6.1,19.2-15.3,19.5l-29.9,0.1c0,0,0-22.2,0-22.5c0,0,16.1,0,15.8,0
			c2.5,0.3,4.5,4.3,5.6,6.4c2.4,4.9,4.4,5.6,8.4,9.6l0-34.1l-6.2-7.1c-0.7,3.6-5.2,13.3-11.1,13.9c-1.2,0.1-12.6,0-12.6,0l-0.1-21.4
			c33,0,32.6,0.2,34.4,0.2c0,0,6.7,6.4,6.7,9.7c0,2,9.2,11.6,9.2,11.6l-0.2-26.4l-5-7l-78.7,0c0,0,3.4,9.3,8.8,10
			c5.5,0.6,8.1,5.8,8.1,5.8v48.7c-3.1,7.1-15.7,6.4-16.4,9.3c-0.2,0.6,4.3,6.2,4.3,6.2l80.2,0L439.2,204.1z M432.8,222.5l-55.9,0.2
			v0h-16.7c0,0,12.3-3.1,12.7-10.2c0.3-17.8,0-51.6,0-51.5c-2.1-7.7-11.6-8.1-13-10.1c0-0.1,71.7,0.1,71.7,0.1V170
			c-3.4-5.1-5.6-11.9-11.7-14.9l-40.1-0.2v29.1c0,0,20,0.4,22.6-0.1c5-1,9.1-10,9.1-10l-0.2,23.5c-0.2,0.8-3.4-9.6-10.6-9.6
			c-2.3-0.5-20.8-0.3-20.8-0.3v30.3H420c7.7-0.3,12.9-16.2,12.9-16.2C432.9,201.8,432.8,222.5,432.8,222.5z"/>
		<path class="st1" d="M539.9,196.7c-5.5,11.6-6.1,19.2-15.4,19.5l-30.2,0l0.1-52.5c0.5-4.7,6-7.5,15.3-9.1
			c-0.1-0.8-3.3-5.3-3.5-5.3l-45.1,0c0,0,3.4,9.3,8.8,10c5.5,0.6,8.1,5.8,8.1,5.8v48.7c-3,7.1-15.7,6.4-16.4,9.3
			c-0.1,0.6,4.4,6.2,4.4,6.2l80.2-0.1l0-24.8L539.9,196.7z M539.9,222.8L484,223v0l-16.7,0c0,0,12.3-3.1,12.7-10.2
			c0.3-17.8,0-51.6,0-51.5c-2-7.7-11.6-8.1-13-10.1c0,0,34.1-0.2,34.1-0.2s-14,4-13.9,10.1c0,1.4-0.3,57.1-0.3,57.1h40.2
			c7.6-0.3,12.8-16.2,12.8-16.2C540,202.1,539.9,222.8,539.9,222.8z"/>
		<path class="st1" d="M318.9,216l0.1-52.5c0.4-4.7,6-7.5,15.3-9.1c-0.1-0.8-3.3-5.3-3.5-5.3l-30.3-0.2l-21.8,49.2L258,153.5
			c-1.5-2-5.4-4.6-5.4-4.6l-29.9-0.2c0,0,3.4,9.1,8.8,9.8c5.5,0.6,8.1,5.8,8.1,5.8v48.7c-3.1,7.1-15.7,6.4-16.4,9.3
			c-0.1,0.6,4.3,6.4,4.3,6.4l38.5,0.1l-3.8-6.4c-5.9-1.9-11.1-5.8-11.1-8.5c0-1-0.1-33-0.2-39.5c20.2,45.4,21.6,48.5,21.6,48.5
			c1.8,3,5.1,6.2,5.1,6.2l24.7-55.2v39.8c-3.1,7.1-15.7,6.4-16.4,9.3c-0.1,0.6,4.3,6.2,4.3,6.2l45.5,0c0,0-3.6-6.9-5.8-7.4
			C320.6,219.3,318.9,216,318.9,216z M308.5,222.8L308.5,222.8l-16.7,0c0,0,12.3-3.1,12.7-10.2c0.3-17.8-0.1-55.5-0.1-55.5
			l-29.9,65.6l-29-65.6c0,0,0.3,52.7,0.3,57.3c0,1.7,6.7,5.7,11.2,7.9l-27.4,0c0,0,11.8-3.1,12.2-10.2c0.3-17.8,0-51.6,0-51.5
			c-2.1-7.7-11.5-7.4-12.9-9.3c0-0.1,21.5-0.2,21.5-0.2l25.9,57.2l25.5-57.2c10-0.1,24-0.1,24-0.1s-14,4-13.9,10.1
			c0,1.3-0.6,50.9-0.4,51.7c0.5,5.3,14,10.2,14,10.2L308.5,222.8z"/>
	</g>
	<g>
		<path class="st2" d="M49.7,151.2c-4.2-0.3-43.7,0.4-43.7,0.5c1.4,1.9,10.9,1.6,12.9,9.3c0-0.1,0.3,33.7,0,51.5
			C18.5,219.6,6,222.9,6,222.9s46.7,0,49.7-0.2c18.8-1.1,29.4-11.6,33.3-24.5c2-6.4,2.1-20-4.4-28.7
			C75.9,157.1,65.6,151.2,49.7,151.2z M58,218.1c-2.3,0.2-32-0.1-32-0.1v-62.4c0,0,30.2,0,32.3,0.2C87.7,159.6,91.1,214.9,58,218.1z
			"/>
		<path class="st2" d="M311.3,212.5c-0.1-0.7,0.4-50.3,0.4-51.7c-0.1-6,13.9-10.1,13.9-10.1s-14,0.1-24,0.1l-25.5,57.2L250.3,151
			c0,0-21.6,0.1-21.5,0.2c1.4,1.9,10.9,1.6,12.9,9.3c0-0.1,0.3,33.7,0,51.5c-0.4,7.1-12.2,10.2-12.2,10.2l27.4,0
			c-4.5-2.2-11.2-6.2-11.2-7.9c0-4.5-0.3-57.3-0.3-57.3l29,65.6l29.9-65.6c0-0.1,0.4,37.7,0.1,55.5c-0.4,7.1-12.7,10.2-12.7,10.2
			h16.7v0l16.8-0.1C325.3,222.7,311.8,217.8,311.3,212.5z"/>
		<path class="st2" d="M420,217.9h-40.2v-30.3c0,0,18.5-0.2,20.8,0.3c7.2-0.1,10.4,10.3,10.6,9.6l0.2-23.5c0,0-4.1,9-9.1,10
			c-2.5,0.5-22.6,0.1-22.6,0.1V155l40.1,0.2c6.2,3,8.4,9.8,11.7,14.9v-18.9c0,0-71.7-0.2-71.7-0.1c1.4,1.9,10.9,2.3,13,10.1
			c0-0.1,0.3,33.7,0,51.5c-0.4,7.1-12.7,10.2-12.7,10.2h16.7v0l55.9-0.2c0,0,0.1-20.7,0.1-20.8C432.9,201.7,427.7,217.5,420,217.9z"
			/>
		<path class="st2" d="M182.1,217.9h-40.2v-30.3c0,0,18.5-0.2,20.8,0.3c7.2-0.1,10.4,10.3,10.6,9.6l0.2-23.5c0,0-4.1,9-9.1,10
			c-2.6,0.5-22.6,0.1-22.6,0.1V155l40,0.2c6.2,3,8.4,9.8,11.8,14.9v-18.9c0,0-71.7-0.2-71.7-0.1c1.4,1.9,10.9,2.3,13,10.1
			c0-0.1,0.3,33.7,0,51.5c-0.3,7.1-12.7,10.2-12.7,10.2H139v0l55.9-0.2c0,0,0.1-20.7,0.1-20.8C195,201.7,189.8,217.5,182.1,217.9z"
			/>
		<path class="st2" d="M527.1,218.1h-40.2c0,0,0.4-55.7,0.3-57.1c-0.1-6,13.9-10.1,13.9-10.1s-34.1,0.2-34.1,0.2
			c1.4,1.9,10.9,2.3,13,10.1c0-0.1,0.3,33.7,0,51.5c-0.3,7.1-12.7,10.2-12.7,10.2l16.7,0v0l55.9-0.2c0,0,0.1-20.7,0.1-20.8
			C540,202,534.8,217.8,527.1,218.1z"/>
	</g>
	<g>
		<path class="st3" d="M231,60.5c-0.3,0-0.7,0-1,0C230.4,60.7,230.7,60.7,231,60.5z"/>
		<path class="st3" d="M317,55.1c2.2-0.3,5.6,2.2,6.8-1c0.5-0.8,0-1.8-0.6-2.3c-3.5,1.2-6.9-2.7-8.8-5c2,0.8,3.9,1.8,6.2,1.6
			c0-0.6-0.1-1.3-0.8-1.4l-0.2,0.4c-0.8,0-2.6,0.6-3.2-0.8c-2.2,0.3-3.5-1.8-5.3-2.6c2-1.3,3.8,2.5,6.1,1.2c1.2-0.9,3.2-0.9,3.2-2.8
			c-0.5-0.7-0.1-2.2-1.4-2v0.2c-0.4,0.9-1.3,1.3-2.2,1.2c-1.3-1.3-4.6-0.7-4-2.8c1.6,0.8,3.2-0.3,4.5-1.2c-0.1-0.1-0.4-0.2-0.2-0.6
			c-1.2,0.5-2.1,1.4-3.4,1.4c-0.9,1-2-0.8-2.8,0.6c-2.1-2.3,2-0.5,2.2-2.2c0.8-1.4,1.1-3-0.2-4.2c-1.9-0.1-0.8,2-2.2,2.6
			c-1.7-0.1-4.6,1.3-5-0.7c-0.1,0.6-0.8,1-1.2,1.6c-0.7,0.8-2.5,1.2-2.8,0c-0.4,2.5-3.3,3.7-4.5,5.9c0.7,1.4-0.6,3.7,1,4.8
			c1.8,0.5,2.2-0.6,3.4-1.6c0.9,1.3,2,3.2,1.2,4.5c-2-2.1-2.2,1.4-4,1.4c-1.8,1.5,0.9,2.7,0.8,4.2c-1.7,3.3-3.6-1.4-6.2-0.2
			c-1.2,3.3-3-1.8-4.2,1.1l-0.2-1.4c-0.8,1.1-2.1,0.9-2.8-0.2l0.6-0.8l-1.7-0.6c-0.4-1.3,1.3-0.5,1.4-1.2l-1.4-0.8
			c-0.4-0.1-0.4-0.7,0-0.8c1.9,1.4,4.7,0.7,6.8,1.6c-0.5,0.2-0.2,0.8-0.2,1.2h0.4c1.6-1.3-0.4-1.7-0.4-3.2c0.9,0.1,1.4-1.1,2.5-0.8
			c0.4,0.3,0.7,0.6,0.6,1.2h0.6v-1.8h0.6c0.9,0.8,0.5,1.3,0.5,2.3c0.3,0,0.7,0,0.9-0.4c0.6-1.2-0.2-2.6-1.4-3
			c-1.3-0.6-2.6,1-3.8,0.6c0.4-1.2-0.6-2.3-0.2-3.2c-0.6,0.7-1.5,1.2-2.2,0.6c-2,0.7-0.9,3.2-2,4.5c-0.8,0.2-1.4-0.2-2-0.5
			c0.9-1.5-2.7-1.6-1.4-3.4h1.4c0.5-1.4-2.6-0.5-1.6-2.6c0.3-0.2,0.6-0.7,1.1-0.6c-0.1-3.1,3-0.8,4.6-0.8c2-2.6,5.5,1.2,7.6-1.6
			c0.2-0.7,0.6-2.1-0.4-2.6c-0.5-0.2-0.8-1.4-1.4-0.6l1.2,1.2c-0.1,0.5,0.2,1.1-0.3,1.4c-0.8,0.7-2.6,0.9-3.3,0
			c-0.1-0.3,0.4-0.6,0.5-0.8c1.2-1.9-0.8-3.5-0.5-4.8c1.4,0.9,3.3-0.3,4.7-1.2c-0.1-1.1,0.4-1.8,0.4-2.8c-0.7-1.3-2.1-2.2-3.6-1.9
			c-1.6-0.5-3.2-1.7-3.2-3.4c1.9-4.1,3.9,2.6,6.8,1.6c3.5,0.5-1.2,4.9,3,4c3.3-1.5,4-5.2,4.8-8.2l-2.2-3.4l-2,2.6
			c-2.3,0.9-4-1.5-6.2-2c-0.8,1.2-1.9,1.5-3,1.6l3.9,3.8c-1.6,0-3.2-2-5-2.6c-0.2-0.6-0.3-1.5-1.4-1.2c-0.9,0.6-1.6,1.6-1.4,2.8
			c0.1,1.3,0.4,1.7,1.4,2.3c0.6,2,4,1.5,4.2,3.9c0.1,1.4-1.1,2.9-2.2,3.2c-1.6-1.1,0.1-1.9,0-3.2c-0.1-1.2-1.5-2-2.8-1.6
			c-1-0.1-0.7-1.2-1.2-1.7c-1.3-0.2-0.5,1.3-1.1,1.7c-1.3,0.5-1.9-0.7-2.8-1.2c1.2-3.1,1.1-6.7,2.2-9.9c-0.8-2.1,2.7-3.8,0.2-5.3
			c-0.6,0.2,0.1,0.7,0,1c-0.9,0.9-0.2,3.5-1.6,3.2c0.2-0.9-0.5-2.9,0.6-2.6c-1.7-2.9-4.8-5.4-8-6.2c0.1-0.7,1.1-0.9,1.2-1.6
			c-2.6-1.5,0.5-3.5-0.6-5.4c-3.5-2-2.2,2.9-2.5,4.2c-1.2,1.4,0.8,1.9,0.8,2.6c-0.4,0.5-0.8,0.6-1.4,0.6c-2.2,2.1-7.3,2.5-6.4,6.5
			c-2.5,1.5,0-1.6-1.8-2.2c-0.7-0.1-0.9,0.9-0.8,1.6c1.9,1.6-0.4,5,2,6.4c-0.6,2.7,2.3,6.1,0.6,8c-1.8,1.3-2.2-1.2-3.2-1.5v1.2
			c-0.4,1-1.4,0.3-2.2,0.6c-3.4,1.2,0.7,3.4-1.6,5c-7-4.8,4.2-5,3.9-10.1c-0.2-1.4-1.8-2.3-3.1-2.3c-1.3,1.8-4.2,3.5-6,4
			c1.4-0.9,2.9-2.6,4.6-3.4c-2.7-3.8-5.5,0.2-9,0c-1.1-0.4-1.1-1.4-1.4-2.2c-0.8-0.2-1.3,0.3-2,0.2c-0.9,1.4-1.5,2.8-1.6,4.6
			c1.4,1.7,1.6,3.9,3,5.6c0.5,0.7,1.8-0.2,1.8,0.8l2.2-0.6c0.6-0.7,1.4-1.9,0-2.5c2.4-1.2,4.6-2.6,6.7-4.2c0.8,0.2,1.4,1.1,1.2,1.9
			c0,2.6-2.8,2-4.2,2.9c-0.9,0.8-3.5,2-2.6,4.2c1.2,1.9,3.8,2.6,5.6,2.2c0.2,0.8-0.7,1.1-1,1.6c-0.1,1.4,0.1,2.9,0.8,3.6
			c-0.9,0.4-2.6,0.7-3.4-0.2c-1.4-1.4,1.8-1.9,0.8-2.8h-0.2c-1.4,0.1-2,1.7-1.6,3c0.7,0.9,1.6,1.6,2.8,1.8c3.5-2.7,5.5,2.9,8.7-0.6
			c0.6,0.3,0.6,0.9,0.8,1.4c0.4,0,0.7,0.1,0.8-0.2c0.9,0.4,0.5,1.3,0.6,1.9c-0.1,1.2-1.3,0.9-2,0.6c-0.1,1.4,1.4,0.9,2,1.4
			c0.3,1.7-2,1.5-2,3.2c-1.2,0.5-1.8-0.8-2.8-0.9c-0.1,0.6,0.3,0.7,0.3,1.2c-0.6,1.4-1.3-0.2-2-0.2c-0.9-1.1,0-1.9,0.6-2.8l1,1.4
			l0.3-1.2c-0.2-2-2.3-0.6-3.4-1.4c0,1.3,0,1.8-0.2,2.8l-3.2-0.8c-1.2,0.3-2.5,1.3-2.2,2.8c0.3,0.3,0.3,1.4,1.2,1.2
			c0-0.6-0.1-1.2-0.6-1.5c0.6-0.3,1-1.5,1.6-1.1l0.3,2c1.1,0,0.1-1.2,1.1-1.4c0.9,0.4,2.1,0.4,2.8,1c-0.3,0.6-0.9,0.6-1.4,1
			c-0.6,0.7-0.1,2,0.8,2.2l0.4-2c1.1-0.6,2.6,0,3.6-0.6c0.1,1.8,2.3,0.4,2.2,2c-0.6,0.4-0.8,1.3-1.6,1.2c0.3,0.5,0.3,1-0.3,1.4
			c-1,0.3-0.5-1.1-1.4-0.9l-0.5,1.8c-0.3-0.4-0.5-0.7-0.6-1.2l-2.2,0.8c-2-1.9-4.6,0-6.6,0.6c-1.9-1.2,0.1-2.8,0.3-4.2
			c-0.5-0.5-0.8-0.9-1.4-1c0.1-3.3-2.7-0.4-4-2c-0.6-1.8,1.3-2.8,2.2-3.7c0.5,0.4,0.9,0.9,1.2,1.4c1.2,0.1,2.5,0.1,2.8-1.1
			c2.2-4.5-3.6-6.2-4.4-9.3l-1.4,0.5c-1-0.6-2.5-1.8-2.6-2.8l-1.2,2c-1.2-0.6-2.9,0.1-4.2-0.6c-0.9-0.6-0.2-2.3-1.6-2.2
			c-0.7,0.9-0.9,1.9-0.8,3.2c0.5,1.8,2.3,1.8,3.4,2.5l-3.7,0.3c-1.6-0.2-2.9-1.8-4.5-1.8c0.2,0.9,1.5,1.6,2.6,2
			c1.3,1.1,2.7-0.9,3.9,0.6c-1.6,0.9-3.5,1.5-5.6,1.6c-1.4,0.3-1.4-2.7-2.8-0.8c-1.2,0.8-0.2,2.2,0.3,3c1.6,0.6,3.4,2.8,5.3,1.2
			c0.3,2.6-3.1,1.3-4.2,2.8c-0.9-1.6-1.9,1-2.8,0.6c0.7,0.5,1.8,0.2,2.6,0.2c1.2-0.4,2.7-0.9,3.6-1.1c-1.3,2.5-3.9,4.3-6.5,4.8
			c-0.8-0.2-2-1.2-2.6,0.2c0.5,1.1,0.2,2.7,1.8,3.1c3.4,1.4,6.2-1.1,8.7-1.9c-1.3,1.8-3.5,3.8-5.6,4.7c-1.6-0.9-1.4,1.3-2.4,1.8
			c3-0.2,5.5-3,8-4.8l0.2,0.2c-1.8,2.9-3.2,5.9-6.1,8.2c-1.3,0.5-2.8,2.7-4,0.8l-0.6,1.8c-0.1,2.1,2.2,2.6,3.6,3
			c3.9-0.6,6.3-4.1,8.8-6.8l-1.8-8.7c0.3-2.3-1.9-5-0.2-7.6c4,12.1,6.8,25,9.6,37.2l-1.8-0.8c-0.5,0.8,1,1.4-0.2,2
			c-1.1-1.8-1.3-4-2-5.6c-0.7,3.3-1.9,6.6-3.4,9.5c-1.5,2.2-2.2,6.1-5.6,6.2c0.2,0.7,0.9,1.2,1.4,1.8c3.8,2.3,6.5-1.9,9-3.4l0.6,0.6
			c-0.7,2.5,2.3,3.2,2.8,4.7c0,1.3,0.8,2.2,2,2.6c-1.4,0.6-1.5,2.1-3.2,2c-1.6-1.5-0.2-2.9-0.2-4.8c-0.7-0.3-0.9-1.5-2-1.2
			c-0.3,0.3-0.7,0.7-0.6,1.2h1.8c0,0.6-0.1,1.1-0.6,1.4c-1.1,0-2.2,1.3-3.2,0c-0.2,1.9-0.9,4.9,1.8,6.2c1.5,0.9,3.4-0.7,4.5,0
			c-0.9,0.8-0.2,2.7-1,3.4c0.5,0.7,1.5-0.8,1.9,0.6c0,0.5,1.2,0.8,0.3,1.4c-0.2,0.5-0.9,0.9,0,1.4c0.2,0.9-0.7,1.8-1.2,2.2
			c0.5,0.5,0.9,1,1.8,0.8c1.3-0.2,2-1.8,2.4-2.8c2.6,0.6-0.3,3.5,2.6,3.4c1.9-0.6,0.5-2.9,1.6-4c1.8,0.4,0.6,1.6,0.3,2.6
			c1.5,3,3.2-1.1,5.3-0.3c-0.3-1.1-0.2-2,0.6-2.8c3,0.7,5.3-0.8,7.6-1.9c-0.1,1,1.4,0.8,1.1,1.9c-1.5,0.8-3.7,0.8-5.3,1.2
			c-0.1,0.5,0.1,1.4,0.6,2c-0.4,0.5-0.8,0.6-1.4,0.6c-1.1,0.5-2,1.5-2,2.8c0,0.8,0.8,1.6,1.6,1.6c0.5-0.5,1.5-0.3,1.2-1.4
			c-0.8-0.3-1.4,1.4-2,0l0.8-0.8c0.7-1.1,1.9-0.3,2.6,0.2l-0.4,0.3c-0.1,0.8,0.2,1.4,0.9,1.9c0.3,0,1,0.2,1.1-0.2l-0.2-0.2
			c-0.7-0.5-0.1-1.4,0.6-1.4c0.6,0.6,1.4,1.2,1.1,2.2c0.8,1.3,2.6,0.6,3.4,0.8c0,0.8-0.6,1.3-0.8,2c0.8-0.6,1.9,0.9,2.2,1.6
			c-0.1-0.7,1.4-2.2,2.2-1.6c-0.2-0.8-1.4-1.5-0.8-2.2l2.6,0.2c1.3-0.8,0.7-2.8,2.2-3.4c1,0.5,0.2,1.4,0.2,2
			c2.2,0.3,1.1-2.2,2.2-2.8c0.8,0.2,1.9-0.5,2.3,0.6c0.1,1.6-1.3,0.3-1.8,1.1c0.3,0.4,0.7,0.9,1.2,0.9c5.2-3.3-3.9-4.3-1.2-7.4
			c-2.1-0.7-3.9,0.3-5.9-0.8c2-4,5.6,1.5,9-0.2c-0.2,1.2,1.6,1.9,0.6,3c0.8,0.8,1.9-0.7,2.5,0.8c1.2,0.7,2.7,0.3,3.2-1l0.5,0.5
			c0.2,1,1.5,1.5,2.3,0.9c0-0.6-0.3-1.1-0.4-1.4c0.2-0.6,0.9-1.5,1.8-1.4c0.9,0.3,0.4,1.5,1.4,1.9c0.5,0.3,1.8,0.7,2.2-0.2
			c-1.6-1,1-4-1.2-4.4c0.5-1,1.5-2.3,2.6-1.8l-0.8-2.2c0-2.7,1.9,0.5,3.3-0.6c2.7-1.1,3.2-4.2,2.6-6.5l-1.6,0.6
			c-0.8-0.5-2.1-0.3-2.3-1.4l1.4-0.3c1.5-6.3,5.5,1.6,8.8-1.4c-0.2-0.9,2.8-2.1,0.6-2.5c-5.3-1.9-5.5-8.9-8-13c1-1.2,0.7,1,2,0.3
			c1.5,3.3,4,7.3,6.2,9.3c-0.2-1.2-1.9-2.1-0.8-3.4c-1.9-1.1-3.3-3.3-4-5.4c1.6-0.5,2.7,2.2,4.2,2.8c2.3,1,4.5,1.9,6.5-0.2
			c1.3-2.2-2-1.3-2.5-3c-4.1-4.9-7.4-10.8-8.8-16.7c2.6,4.5,5.9,9.2,10.4,12.4v-0.6h-0.2c-1.2-0.1-0.8-1.4-0.6-2
			c-2.6-1.2-4.8-3.7-6.8-6.5c-0.7-2-3.2-4-2.2-6c1.6,2.2,3.3,5.5,6.2,6.2c1.8,0.6,3.9,0.2,5.4-0.8c0.1-1.3-0.5-2.1-0.6-3.2
			c-4.6,0.5-6.8-5.4-9.3-8.4l0.5-0.5c2.3,2.3,5,4.5,8,4.7l-0.6-1.4c-4.1-0.1-7.4-4.5-10.4-7.3l0.2-0.2L317,55.1z M289.4,46.7
			c0.5,0.9,1.9,1.5,0.6,2.8c-0.2,0.3-0.6,0.2-0.9,0.2C289.4,48.4,288.5,47.7,289.4,46.7z M286.8,39.9c1.1,0.2,2.5-0.5,3.2,0.6
			C288.9,41.2,287.4,40.6,286.8,39.9z M291.6,39.4l-1.2-0.3h1.2V39.4z M291.2,35.3c0-0.2,0.1-0.3,0.2-0.5
			C291.4,35,291.3,35.2,291.2,35.3c-0.1,1,1.4,1.7,1.2,2.9c-1.9-0.7-4.5,0.1-6.4,0.6C287.8,38.1,290.4,37.4,291.2,35.3z M263.1,40.5
			c1.1-0.5,1.9-0.1,2.9-0.3c0.2-0.1,0.4-0.2,0.6-0.2c-0.2,0.1-0.4,0.2-0.6,0.2C265,40.6,263.9,41.7,263.1,40.5z M262.1,37.6
			c-0.6,0.4-0.9,1.4-1.8,1.2c0.1-1.2,2-4.5,2.6-2c1.6,1.4,4.3,0.6,5.4,2.8C267,37.5,264,38.8,262.1,37.6z M245.2,104.1
			c0.7-0.6,1.5-1,1.6-2c0.3,0.8-0.7,2,0.8,2.3C247,104.8,245.8,104.8,245.2,104.1z M299.5,92.3c-1.9,0.2-2.9-3.2-5-4.5l0.2-0.8
			c1.4,3.3,4.9,4.3,7.4,6.4c1.3,0.6,3.4-2.5,3.4,0.6c-2,1.6-4-1.1-5.6,0.2C299.2,93.8,299.6,93,299.5,92.3z M295.6,90.1v0.6
			l-1.2-0.8C294.8,89.8,295.4,89.6,295.6,90.1z M302.1,86.1c0.8-0.7,1.9-1.2,3-1.4c0.7,1.6-0.9,3-1.6,4.6
			C304.9,86.8,300.1,88.7,302.1,86.1z M301.7,90.9l-1.1-0.8h0.6L301.7,90.9z M294.4,77.6c0.9,2.5,2.3,5.4,5,7c1,0.7,0.8-1.3,1.8-0.2
			c-1.2,1.8-2.7,3.9-2,5.6l-1.4-1.4c-0.1-1.1,1.8-0.7,1-2c-0.9-0.4-2.1,0.2-2.8-1.1c-0.1-0.7,1-0.9,1.2-1.8
			c-0.7-1.5-1.9,0.6-2.6-0.8c0-0.5-0.2-1-0.5-1.4h-0.4l-0.1-0.6c-1.2-1.5-2.8-2.8-1-4.4l-0.3-2.8h0.3l1,7.2c0.2,0.2,0.3,0.4,0.5,0.6
			h0.5C294.7,80.3,294.9,79.2,294.4,77.6z M289.4,72.8c0.7-0.8,1.4,0.5,2.2,0.4v0.6c-1.2-0.4-2.5-0.5-3.4-1.4
			c1.2-0.6,0.1-1.9,0.8-2.6c0.9,0.7,2.9-0.2,3.4,0.8h-3.6C290.3,71.5,287.8,72,289.4,72.8z M290.8,74.6c0.9,0.5,0.9,1.6,0.2,2.2h-1
			C290.7,76.6,290.9,75.2,290.8,74.6z M289.6,68.4l0.6-0.8c0.3,0.1,0.2,0.5,0.2,0.8l-1.6,0.2l-0.3-1.6h0.9c0.1,0.4-0.4,0.6-0.6,0.8
			L289.6,68.4z M293.6,67.2c0.2,0.3-0.5,1.9-1.4,1.7c0.6-0.7,0.6-1.3,0-2L293.6,67.2z M293,65.6c-1.1,0.5-2.5,0.2-3.6,0.2l-0.4-1
			c1.2,1.8,2.6,0.2,4,0.2V65.6z M289,63c0.9,0,3.3-1.6,3.7,0C291.4,62.6,290.3,63.2,289,63z M292.8,60.5c-0.6,0.2-0.7,1.2-1.4,0.8
			c0.1-0.5,1.4-1.8-0.4-2.6C292.2,58.6,293.2,59.6,292.8,60.5z M291.6,57.1c-0.6,0.5-2,1.3-2.8,1.2
			C289.2,57.1,290.9,57.2,291.6,57.1z M290,60.2l-1.2,0.6l0.2,0.3l-0.6,0.5l-0.5-0.5C288.6,60.8,288.8,59.2,290,60.2z M288,73.8
			c-1.2,1.3,0.8,1.2,1.1,2l-2-0.6C286.6,74.7,287.2,73.5,288,73.8z M286.8,76c0.9,0.7,2,1.3,2.8,2.2l-1.1,1.3
			c-0.1,0.2-0.2,0.3-0.3,0.4l-0.7,0.8c-0.9-0.6-2-1.6-2.6-2.6c1.6,0.1,2.1,2.9,3.3,1.7l0.3-0.4c0.1-0.1,0.2-0.3,0.3-0.5
			C288.9,77.3,286.1,76.8,286.8,76z M281.2,80.2c1.2,0.5,1.2,2.3,1.4,3C280.9,82.9,282.5,81,281.2,80.2z M280.9,70.9
			c1.1,1.5,2.6,4.1,1.9,5.9c-0.7,0.3-1.3,1.1-2.2,1.2C281.1,75.8,279.8,72.8,280.9,70.9z M279,82.2c1.8,0,0,1.4,1,2.2
			c-0.6,0.2-1-0.5-1-0.8V82.2z M275.8,81.4l0.4-1.2c1.4-0.5,1.4,1.9,2.8,0.8C278.7,82.2,276.4,80,275.8,81.4z M280.4,92.9
			c-0.1,0.1-0.4,0.4-0.6,0.2l-0.2-2.2C281.4,90.8,279.2,92.2,280.4,92.9z M278.1,71.8c-1.4,1.5-2.7-0.3-4-0.6
			c-2.6-1.9-2.1-4.9-2.6-7.6c3.3-1.3,7-1.3,10.2,0C281.7,66.8,281.2,70.4,278.1,71.8z M276.2,92.3l-2.2-0.2l0.2-2.6l0.6,2l1.1-0.8
			C275.6,91.4,276.4,91.6,276.2,92.3z M276.2,89.2c-0.5-0.7-1.3-1.2-2-0.6c-0.2-1.1,1.8-1.6,2-0.6V89.2z M273.9,84.2
			c-0.2-0.8,0.2-2.5,0.2-3.2h0.6C274,81.6,275,83.5,273.9,84.2z M283.8,78.6c0.3,0.1-2.1,1.7,0,1.9V81
			C282.7,80.7,281.5,78,283.8,78.6z M285.4,81c0.2-0.1,0.5,0.1,0.6,0.3c0.1,0.6-0.3,1.3-0.8,1.4c-0.5-0.1-1.2,0.2-1.4-0.4
			C284,82.7,286,82.4,285.4,81z M285.2,71L285.2,71L285.2,71c0.5-0.2,0.9-0.2,1.4,0.8l-0.3,0.2L285.2,71C285.2,71,285.2,71,285.2,71
			l-0.6,1.4c0,0.2-0.7-0.1-0.8-0.6C284.3,71.6,284.7,71.2,285.2,71z M283.8,66.4c-0.4,0.4-0.4,1.5-1.2,1.7
			C282.6,67.3,283.2,66.6,283.8,66.4z M273.9,26.4c6.4-2.7,5.4,4.3,8.7,6.8c0.4,0.7-0.8,1.4-2,1c-0.3-0.2-0.3-1.2-1-0.8
			c-0.6,0.4-0.8,1.1-0.3,1.4c0.6,0.9,1.4,0.9,2.2,0.8c-0.2,1.6-2.7,2.6-3.6,4c0.2,0.5,0.8,0.2,1.2,0.2c-0.7,1.9-0.9,4-2,5.6
			c1.5,1.2-0.5,3.7,0.6,5.1c-0.3,0.8-0.5,1.8-0.6,2.8c-2-4.3-0.3-9.1-3-13.6l0.8-1c-1.5-0.6-2-2.3-3.2-3.2c0.5,0.1,1.2-0.1,1.8-0.5
			c0.5-0.3,0.6-0.8,0.6-1.4c-0.8-0.1-2.8,1.3-4,0C271.7,31.9,273.4,29.2,273.9,26.4z M269.1,66.7c0.8,0.2,0.7,1.4,1.1,2.2l-1.9-0.8
			L269.1,66.7z M267.9,70.9h0.6v0.5h-0.6V70.9z M266.5,60.2c1.8,1.6-0.7,3.9,0.8,5.4l-1,1.6C266,65.1,266.9,62.4,266.5,60.2z
			 M267.7,68.4c-0.4,1.3-1.2,2.1-1,3.4c0.3,0.5,0.6,1.1,0.9,1.7c1.3,0.4,3.5-2.5,2.1,0.6c0.2,0.2,0.3,0.7,0.8,0.6l0.6-0.6
			c0.4,0.2,0.2,0.6,0.2,0.8l-1.4,0.6c-0.2,1.1,1.1,0.8,1.4,1.8c1.9,0.5,0.9-2,2-2.3l-0.4,3.7c-3.1-0.4-4.2-2.8-5.4-5.1
			c-0.3-0.1-0.5-0.3-0.7-0.8c-0.1-0.3-0.2-0.6-0.2-0.9c-0.2-0.4-0.5-0.8-0.7-1.1C266.2,69.7,266.3,68.1,267.7,68.4z M271.3,81
			l0.8-1.1l0.8,0.5c-2-0.1-0.4,2.3-1.9,2.8C269.8,82.7,271.6,82,271.3,81z M269.3,79.1c0.1-1.2,1.4-0.2,1.8,0.3L269.3,79.1z
			 M267.4,77.2c0.6-0.1,0.8,0.5,1.2,0.8c-0.5,1.1-1.2,2.6-2.6,2.8l-0.2-0.4C266.3,79.6,269.3,78.8,267.4,77.2z M268.8,80.2l-0.8,1.4
			l1.4,1.2c-0.6,0.5-2.1,0.2-2-0.9L268.8,80.2z M265.1,73.8c0.3,0.3,1.5,0.1,1.2,1C265.8,75.2,264.9,74.2,265.1,73.8z M266.3,76.2
			c0.2,0.5-0.6,1.9-1.8,1.8c-1,0.7,1.3,1.3,0.3,1.6l-1.2-1.4L266.3,76.2z M260.7,75.2c0.1-0.6-0.2-1.9,0.2-2.6
			c1.2,1.5,2.7-0.4,4-0.2C264,73.8,261,72.8,260.7,75.2z M263.5,76.8c-0.7,0.9-1.1-0.7-1.8-0.6v-0.8
			C262.5,75.3,262.5,76.8,263.5,76.8z M263.1,70c-0.1,1.2-1.6,0.2-2.2,0.9C260.4,69.7,262.4,70.2,263.1,70z M263.7,67
			c0.6-0.2,1.1,0.4,0.8,0.8v0.8c-0.2,0-0.3,0.2-0.5,0.3c-0.2-0.1-0.3-0.3-0.3-0.6C264.8,67.9,263.8,67.6,263.7,67z M264.9,61.6h-0.8
			c0-0.6,1.1-1.3,0.2-1.9C265.4,60,264.7,61,264.9,61.6z M264.3,58.3c-0.7,0-2.5,0-2.8-1.2C262.3,57.8,263.8,56.8,264.3,58.3z
			 M261.7,58.8c0.4,0.3,0.8,0.6,0.6,1.2l-1-0.6L261.7,58.8z M261.5,60.8v0.6l-0.8-0.8L261.5,60.8z M260.9,62.2
			c1.1,0.2,1.9,0.8,3.2,0.6v0.6c-1.1,1-3.9-2.2-3.2,0.8C260.9,63.8,259.8,62.6,260.9,62.2z M260.3,65.3c1.2,0.8,2-0.5,3.2,0.3
			l0.2-1.6c0,0.5,0.5,0.8,0.3,1.6c-1.2,0.3-2.5,0.9-3.8,0.2V65.3z M260.3,67.2l0.9,1.7c-0.8,0.2-1.3-0.3-1.8-0.8
			C259.1,67.1,260.2,67.9,260.3,67.2z M259.3,72.8h0.2v0.9h-0.2V72.8z M260.3,77.4c0.6,0.2,1.8,0.6,0.9,1.4l-2,3.4L260.3,77.4z
			 M258.9,76l-0.3,1.5c-0.1,2.6,1.5,6.5-2.5,6.8l0.9,1.4c-1.4,1.4-1.8,4.7-4,5l-0.8-0.8c1.4-1.1,2.7-2.3,3-4c-1.8-2.1,2.3-3.2,2.6-5
			l0.7-3.4C258.6,76.9,258.7,76.4,258.9,76z M258.4,87.5c-1.1,1.8-2.5,3.4-4,5.2C255.5,90.8,256.6,88.5,258.4,87.5z M252.5,84.4
			c1.4,0.5-0.2,1.8,0.4,2.8c-0.5,0-0.7,0.5-1.2,0.2c0.6-5.1,5.9-21.3,6.9-26.6C257.8,64.8,254.1,80.6,252.5,84.4z M256.3,62.7
			c-0.6,3.4-4.4,18.3-5.5,21.5C250.6,80.9,255.6,66.1,256.3,62.7z M248.6,90.3h0.2v1.4h-0.2V90.3z M247.4,95.1
			c-0.2-0.7,0.6-0.9,0.2-1.6l-1.6-0.8c0.5-0.4,0.7-1.3,0.5-1.9c-0.1-0.2-0.2-0.4-0.2-0.6c0.1,0.2,0.2,0.4,0.2,0.6
			c0.7,1.3,2.5,2.7,2.1,4.2h0.8v-1.8l0.8,1.2C249.9,95.5,248.4,95.7,247.4,95.1z M250.8,97.9l-0.5-1c-0.2-0.2-0.4-0.3-0.3-0.6
			l0.3,0.6C250.6,97.2,251,97.4,250.8,97.9z M250.5,91.2c-0.1,0.4-0.5,0.2-0.8,0.2c-0.3-0.7,0.8-0.9,0-1.4h-0.6v-0.8
			c1.2,2.2,5.9,2.1,4.2,5.1C253,93,251.5,91.9,250.5,91.2z M251.6,114.2h-0.3v-0.8c0.2-0.1,0.5,0.1,0.6,0.2
			C252,113.8,251.7,113.9,251.6,114.2z M252.4,107.7l-0.8-2.3c0.7,0.5,1.6,2.4,2.8,0.9l0.2,0.2C254.3,107.4,253.1,107.2,252.4,107.7
			z M252.5,104.7l0.6,0.6l-0.2,0.2L252.5,104.7z M256.9,114.2c-0.2,0-0.6,0-0.8-0.3l0.6-1.1C257.1,113,256.9,113.7,256.9,114.2z
			 M258.7,110.9l0.2,0.8c-0.1-1.2-1.8,1.2-2.5-0.2c1-0.5,1.6-1.6,1.4-2.8c-0.3-0.5-0.8-0.6-1.2-0.5l0.3,0.3l-0.6,0.6v-0.8
			c-0.4,0.1-0.7,0.3-1,0.4c0.1-0.9,1.1-1.5,0-2.3c-1.3-0.8,0.3-2.3-1.4-2.5c0.3-1.2,1.5-1.1,2.2-1.4c0.2,0.4-0.8,1.9,0.6,2l0.6-0.6
			c0.3,0.4,0.7,0.6,0.6,1.1c-0.7,0.5-1.5,0.3-2,1.2c-0.2,0.8,0.3,1.2,0.8,1.6c1.3,0.2,0-1.5,1.2-1.1
			C256.5,109.5,263,109.1,258.7,110.9z M260.3,113.3v-1.2c0.2,0.2,0.7,0.5,0.6,0.8C260.8,113.2,260.5,113.3,260.3,113.3z
			 M262.9,109.3v-0.8c0.5-0.2,0.7,0.2,1.1,0.6C263.8,109.6,263.2,109.2,262.9,109.3z M264.1,104.5c-0.1-1.6-1.9-1.4-2.6-2.6l1.2-1.2
			c-0.5-0.4-1.2-1.3-1.8-0.5c-0.6,0.3-0.6,0.8-0.8,1.4c-1.3-1.4-3.6-1.7-5.6-1.2c-0.3,0.9-1.3,0.5-2,0.6c0.2-1.3,2.1-3.3,0.6-4.8
			c2.3-1.3,3.1-5.9,5.9-4.2c0,0.9,0,1.9-0.8,2.5c-0.4-0.5-0.8-0.6-1.4-0.5c-0.5,0.1-0.1,0.7-0.2,1c1,1.9,2.7,0.2,3.6-0.6
			c-0.2,0.8,0.6,1.3,1.2,1.4c0.5,0.2,0.7-0.2,1-0.5c0.5-1.5-1.9-0.4-1-2c0.3-0.1,0.6,0.5,1,0.2c0.8-0.6-0.1-1.1-0.2-1.6l1.1-3.2
			c0.6,0.8,0.1,2.3,1.4,2.3c-0.6-2.7,2.1-4.7,3.2-7c1.2,0.9,2.8-0.9,3.6,0.5c0.7,1-1.6,1.5,0,2.3l1.2-0.6c0.1,0.5-0.2,1.5-0.9,2
			c-1.3-0.2-0.7-2.6-2.5-2.6c-1.6,0-3.2,1.3-3.6,2.8c-0.6,1.7,0.7,3.2,2.2,3.4c0.7-0.2,1.5-0.7,1.6-1.4c0.1-0.2-0.1-0.5-0.2-0.6
			c-0.8-0.3-1.4,1.4-2,0v-0.6c0.6,0.6,1.6,0.2,1.6-0.6c0.4,1.7,2.9,1.7,3.4,1.2c-0.4,1.1-1.3,2.3-2,2.8l0.9-1.2
			c-0.3-0.7-1.1-0.5-1.8-0.5c-0.6,0.5-0.9,1.1-0.8,1.9c0.6,1.1,1.5,1.1,2.6,1.2c-2.1-0.5-4.2,2.1-5.6,0.2c-1.3,1.3-3.4-0.1-3.2,2.3
			c0.8,1.1,1.8-0.9,2.2,0.5c-0.7,1.3-2.2,2.2-1.6,4l2.2,2L264.1,104.5z M266.2,107.1l-0.8-0.8h0.8V107.1z M267.4,106.4
			c-0.5,0.1-0.6-0.4-0.5-0.8c-0.2-0.7,0.2-1.3,0.8-1.4L267.4,106.4z M266.3,101.3l-0.6,0.6c-0.6-0.5,0.1-1.5-0.6-2
			c0.7-0.3,2-0.5,2.6-0.2c-0.1,0.6-1,1.2,0,1.6h0.8C267.8,102.1,266.8,102.4,266.3,101.3z M270.8,106.1l-2-0.2
			c1.5-1.9-0.8-3.1,1.4-4.8c0-1.5,1-2.7,2.3-3.4l0.8,0.8l0.8-0.8c0.1,3.1-3.5-0.6-2.6,2.6c-1.1,1-2.2,2.9-1.4,4.2
			c0.3,0.7,1,0.5,1.8,0.5l0.2-2.5l1.4,0.8C273.2,104.5,271.9,105.8,270.8,106.1z M272.5,109.8l2.8-4.2c0.4,1.5-0.9,3-1.8,4.6
			L272.5,109.8z M274.6,117.2c-0.8,0.2-1.3,1.4-1.1,2c-3.3-2.6,2.3-2.8,1.6-5.4C276.2,114.9,274.6,116,274.6,117.2z M275.3,94.3
			l0.2-0.6c0.2,0.3,0.6,0.3,0.8,0.3C276.5,94.5,275.7,94.2,275.3,94.3z M275.6,85.3c-0.9-1.2,0.6-2.2,0.6-3.1
			c0.9,0.9-1.3,1.9,0.2,2.8l1.4-1.4v1.6C276.7,84.8,276.3,86,275.6,85.3z M277.6,92.6c-1.2-1.9,1.2-3,0-4.8c0.2,0.7,2.7,0.3,1.4,2
			C278.5,90.8,278.8,92.5,277.6,92.6z M282,117.2l-1.4,2c1.2-2.2-3.2-2.2-2-5.4C278.6,115.4,280.7,116.5,282,117.2z M280.8,109.1
			c-1.3-0.6-2.1-2.2-2.2-3.8C279.2,106.4,281.2,108.1,280.8,109.1z M281.2,105c-0.3-0.3-0.3-0.8-0.8-1.1c0.6-0.5,0.2-1.6,1.1-1.8
			l0.3,2.6c0.8,0.1,1.4-0.2,2-0.8c0.5-2.1-2.2-3-1.4-4.8c-0.7-1.5-1.6,0.5-2.3-0.3c1.1-2.1,3.4,0.3,3.4,1.8c0.4,1.6,1.6,2.2,1.2,4
			l0.8,0.8C284.2,106.2,282.2,106,281.2,105z M287,105.5l-0.2,0.3c-0.6-0.2-1.2-1.4-0.6-2C286.9,104,287.3,104.8,287,105.5z
			 M285.2,101.3l1.4-0.8l-0.6-1.2c1.6-2,2.9,1.2,2,2C286.9,100.4,286.2,102.5,285.2,101.3z M288.2,106.5h-0.6l1.1-1.2L288.2,106.5z
			 M291,108.8h-0.8c-0.1-0.8,0.8-0.5,1.4-0.6C291.6,108.5,291.2,108.9,291,108.8z M295.8,113l-0.6-1.4h0.6V113z M294.9,110.5
			l0.4-1.2c-0.5-0.5-2-0.1-1.4-1.4c2.2-2.2,1.6,1.9,3,2.2C296.4,110.6,295.3,109.1,294.9,110.5z M297.5,113.8v-1.4
			c0.2,0.4,0.7,0.7,0.6,1.2C297.7,113.5,297.6,113.7,297.5,113.8z M298,106.2c0.8,0.8-0.3,1.7-0.3,2.6c-0.6-0.4-0.6-0.9-0.2-1.4
			c-0.3-0.7-2.7-0.8-1.4-2.2l1.2,1.2c0.1-0.2,0.2-0.5,0.5-0.3C297.8,106,297.8,106,298,106.2c-0.1-1.4-1.9-1.2-2.1-2.3
			c0.6-0.8,1.5,0.7,2-0.6l-0.4-1.4c1.1-0.5,1.4,0.7,2,1.2v0.5c-0.5-0.1-0.8,0.3-1,0.6C299.2,104.9,298.3,105.5,298,106.2z
			 M301.2,108.1c-0.7-0.3-2-0.3-2-1.2c0.8,0.2,2.3,0.5,2.5-1.1C302.4,106.6,301.8,107.5,301.2,108.1z M304.9,102.5
			c-2.6-3.3-6.5-2-9.9-2.2l-1.2,1l-2-2l-1,1.2l1,0.8c-1.1,0.7-2.4,2-2.2,3.4c0.1,0.3-0.1,0.4-0.2,0.6c0.1-0.7-0.2-1.9-0.9-2.6
			c1.6-0.7,2.6-2.6,1.8-4.2c-0.6-0.6-1.6-1.4-0.8-2.2c0.6-0.1,1.5,0.8,2-0.4c0.3-0.8-0.6-1.4-1.2-1.6c-1.2,2.3-2.8-2.8-2.8,0.8
			c-0.9-0.6-2-1.6-3.2-0.8c-0.2,0.5-0.8,0.2-1.4,0.2l-0.2-0.2c1.2,0,3.1-1.3,2.2-2.8c-0.4-0.6-0.9-0.8-1.6-0.8l-0.8,1.4l-1.4-2.2
			c0.7-0.6,2.1,1.5,3.1-0.4c0.3,0.6,0.3,2.3,1.6,2.2c1.1,0,2-0.7,2.3-1.6c0.8-2.2-1.3-3.4-2.6-4.5c-1.2-0.2-2.1,0.1-2.8,1.1
			c0,0.7,0.1,1.4-0.6,1.8l-1.4-2c0.7-1.1,1.2,1.1,2,0c-0.1-0.9-0.9-1.6,0.2-2.2c3.5-1.4,4,1.9,6,3.9c0.5,1.3-1,2.2,0.2,3.2
			c0.9-0.3,0.6-1.6,1.8-1.4c0.7,0.8,0.7,2.3,0.2,3.3l1.2,0.4c0.1,0.9-1.3,0.3-0.8,1.4c1.1,1.3,2.6-1.5,3.3,0.8c0.6,0.1,1,0,1.4-0.6
			c-0.7-0.8-2.1-1.6-1.9-3.4c0.5-0.3,1.5,0.8,1.6-0.5c0.9,0.7,2,2.5,3,3.7c2.1,0.3,2.9,4.5,5.6,2.5
			C304.6,99.1,306.9,101.2,304.9,102.5z M286.6,89.2c0.3,0.7-0.6,0.7-0.9,1.1C284.8,89.8,286,89,286.6,89.2z M308.3,103.1l-1.4,1
			c-0.2-0.3-0.6-0.2-0.9-0.2C306.1,102.5,307.8,103.2,308.3,103.1z M301.7,95.1c1.4,1.3,3.4,0.1,4.6,0c0.2,0.6,0.6,1.1,0.6,1.8
			C305.3,95.6,301.9,97.3,301.7,95.1z M307.1,92.6c-0.4,0.2-0.6,0.7-1.2,0.5l0.9-1.4C307.2,91.9,307.1,92.3,307.1,92.6z M309.1,94.9
			l-1.2,1C307.8,95.7,308.3,93.9,309.1,94.9z"/>
		<path class="st3" d="M305.5,33.8c0,0.3,0,0.5,0,0.7C305.6,34.2,305.5,34,305.5,33.8z"/>
		<path class="st3" d="M230.3,78c4.9-2.9,8.1-8.1,10.7-12.7h0.6c-0.1-0.6,0.2-1.6-0.3-1.8l-3.9,6.2c-0.6,2.1-3.5,2.6-3.8,4.8
			c-0.6,0.7-1.5,0.4-2.2,0.8C232.8,76.9,230.1,76.9,230.3,78z"/>
		<path class="st3" d="M243.8,75.8l-2-10c-0.4,0.6-0.8,1.7-0.8,2.6c-2.8,5.2-5.1,10.7-9.3,15.2l-1.4-0.3v0.9c0,1.2,0.8,1.9,1.9,2.2
			c2.5,0.8,4.5-1.3,6.2-2.8C240.1,80.9,241.6,77.6,243.8,75.8z"/>
		<path class="st3" d="M244.6,78.2l-0.2-1.7c-3.2,3.7-3.6,10.8-8.8,12.7c1.9,1.4-1.9,2.6-1.4,3.6C239.6,89,241.7,83,244.6,78.2z"/>
		<path class="st3" d="M297.8,106.4c0-0.1,0.1-0.1,0.1-0.2c0,0-0.1,0-0.1-0.1C297.9,106.2,297.9,106.3,297.8,106.4z"/>
		<path class="st3" d="M256.3,108.3c0.1,0,0.2-0.1,0.3-0.1l-0.3-0.3V108.3z"/>
		<path class="st3" d="M281.7,64.9l-1.4,0.6c-0.6-2-3.1-1.8-3.9-1.7c-3.6,0.8-3.1,2.1-2.6,3c0.9,1.6,3.6,0.4,4.3-0.3
			c0.7-0.8,0-1.5-0.6-1.5c-2.1,0.1-3.1,1.9-3.1,1.9c0.2-0.2,1.3-1.8,3.1-1.7c0.4,0,1.1,0.6,0.5,1.2c-1.5,1.4-3.8,1.2-4.1,0.4
			c-0.4-1.3,1.8-2.4,2.5-2.6c3.1-0.8,3.7,1.4,3.7,1.4c-0.7,0.3-2.1,1.7-2.4,2.1c-1.1,1.4-2.4,1.6-2.6,1.5c-0.6-0.4-2.5-0.9-2.4-0.3
			c0.1,0.8,2.4,0.5,2.4,0.5c4.2,1.4,5.7-3,5.3-3.7C280.3,65.5,280.8,65.3,281.7,64.9z M272.9,68.9c0.3-0.4,1.9,0.3,1.9,0.3
			C274,69.3,272.8,69,272.9,68.9z M275.6,69.3c0,0,1.7-0.1,2.8-1.7c0.5-0.8,1.8-1.9,1.8-1.8C280.6,67,278.4,70.3,275.6,69.3z"/>
	</g>
	<g>
		<path class="st1" d="M12.4,259.5c0,0.5,0,0.5,0.1,0.5c0.5,0,1-0.6,1.7-1.2l7.7-7.6c0.6-0.6,0.9-0.8,0.9-1.1c0-0.3-0.5-0.5-1-0.5
			c-2-0.3-2.3-0.5-2.3-1c0-0.4,0.3-0.5,1.9-0.5h8c0.7,0,0.8,0,0.8,0.8c0,0.2-2.2,0.5-2.9,0.7c-0.2,0-1.2,0.5-1.4,0.7l-8.6,7.1
			c-0.1,0.1-0.1,0.2-0.1,0.3c0,0.1,0.1,0.2,0.2,0.3l10.9,11.2c1.6,1.6,2.8,2.7,4.1,3.1c1.2,0.3,1.5,0.5,1.5,0.7
			c0,0.8-0.2,0.9-1.1,0.9c-0.3,0-0.7-0.1-1.5-0.1c-0.8-0.1-1.8-0.1-3.4-0.1c-2.2,0-3.7,0-4.7,0.1c-1,0-1.5,0.1-1.9,0.1
			c-0.6,0-0.9-0.1-0.9-0.7c0-0.6,0.9-0.8,1.9-0.8c0.8,0,1.2-0.1,1.2-0.5c0-0.3-0.2-0.5-1.1-1.5c-2.4-2.5-4.6-5-8.1-8.1
			c-0.4-0.3-0.8-0.6-1.2-0.6c-0.3,0-0.7,0.4-0.7,1v6.6c0,2.6,0.2,2.8,2,3.3c1.4,0.4,1.7,0.5,1.7,0.9c0,0.5-0.3,0.6-1.1,0.6
			c-1.5,0-3-0.2-4.6-0.2c-2,0-4,0.2-6,0.2c-0.6,0-0.8-0.2-0.8-0.5c0-0.6,2-0.8,2.7-1c0.7-0.2,1.2-0.6,1.2-1.8c0.1-1.9,0-5.9,0-7.3
			v-8c0-4.7,0-5.5-1.3-5.6c-1.7-0.1-2-0.5-2-0.9c0-0.6,0.6-0.6,1.3-0.6c1.7,0,3.3,0.2,5,0.2c1.5,0,3-0.2,4.5-0.2
			c0.7,0,0.9,0.1,0.9,0.6c0,0.5-0.4,0.5-2.7,0.9c-0.5,0.1-0.6,0.3-0.6,1V259.5z"/>
		<path class="st1" d="M45.8,271.7c0,1.3-1.3,2.5-2.7,2.5c-1.3,0-2.6-1.1-2.6-2.5c0-1.4,1.2-2.6,2.6-2.6
			C44.5,269,45.8,270.3,45.8,271.7z"/>
		<path class="st1" d="M78.4,258.5c0-1.7-0.5-2.1-1.5-2.2c-0.8-0.1-1.5,0-1.5-0.6c0-0.4,0.2-0.6,0.8-0.6c1,0,1.7,0.2,2.9,0.2
			c1.4,0,2-0.2,2.9-0.2c0.4,0,0.7,0.3,0.7,0.6c0,0.5-0.3,0.7-1.3,0.7c-0.6,0-1.4,0.3-1.4,1.6v8.5c0,5.9-3.3,7.9-7.9,7.9
			c-5.7,0-8.9-1.7-8.9-5v-11.7c0-1.1-0.7-1.3-1.4-1.3c-0.7-0.1-1.4,0-1.4-0.5c0-0.6,0.3-0.8,0.8-0.8c0.9,0,2.1,0.2,4.3,0.2
			c1.7,0,3.4-0.2,4.2-0.2c0.8,0,1,0.2,1,0.6c0,0.5-0.4,0.7-0.9,0.7c-1.6,0-2.3,0.3-2.3,2.2v9.8c0,3.4,1.7,4.6,5.2,4.6
			c3.8,0,5.9-1.6,5.9-6.8V258.5z"/>
		<path class="st1" d="M93.9,271.7c0,1.3-1.3,2.5-2.7,2.5c-1.3,0-2.6-1.1-2.6-2.5c0-1.4,1.2-2.6,2.6-2.6
			C92.6,269,93.9,270.3,93.9,271.7z"/>
		<path class="st1" d="M117,259.5c0,0.5,0,0.5,0.1,0.5c0.5,0,1-0.6,1.7-1.2l7.7-7.6c0.6-0.6,0.9-0.8,0.9-1.1c0-0.3-0.5-0.5-1-0.5
			c-2-0.3-2.3-0.5-2.3-1c0-0.4,0.3-0.5,1.9-0.5h8c0.7,0,0.8,0,0.8,0.8c0,0.2-2.2,0.5-2.9,0.7c-0.2,0-1.2,0.5-1.4,0.7l-8.6,7.1
			c-0.1,0.1-0.1,0.2-0.1,0.3c0,0.1,0.1,0.2,0.2,0.3l10.9,11.2c1.6,1.6,2.8,2.7,4.1,3.1c1.2,0.3,1.5,0.5,1.5,0.7
			c0,0.8-0.2,0.9-1.1,0.9c-0.3,0-0.7-0.1-1.5-0.1c-0.8-0.1-1.8-0.1-3.4-0.1c-2.2,0-3.7,0-4.7,0.1c-1,0-1.5,0.1-1.9,0.1
			c-0.6,0-0.9-0.1-0.9-0.7c0-0.6,0.9-0.8,1.9-0.8c0.8,0,1.2-0.1,1.2-0.5c0-0.3-0.2-0.5-1.1-1.5c-2.4-2.5-4.6-5-8.1-8.1
			c-0.4-0.3-0.8-0.6-1.2-0.6c-0.3,0-0.7,0.4-0.7,1v6.6c0,2.6,0.2,2.8,2,3.3c1.4,0.4,1.7,0.5,1.7,0.9c0,0.5-0.3,0.6-1.1,0.6
			c-1.5,0-3-0.2-4.6-0.2c-2,0-4,0.2-6,0.2c-0.6,0-0.8-0.2-0.8-0.5c0-0.6,2-0.8,2.7-1c0.7-0.2,1.2-0.6,1.2-1.8c0.1-1.9,0-5.9,0-7.3
			v-8c0-4.7,0-5.5-1.3-5.6c-1.7-0.1-2-0.5-2-0.9c0-0.6,0.6-0.6,1.3-0.6c1.7,0,3.3,0.2,5,0.2c1.5,0,3-0.2,4.5-0.2
			c0.7,0,0.9,0.1,0.9,0.6c0,0.5-0.4,0.5-2.7,0.9c-0.5,0.1-0.6,0.3-0.6,1V259.5z"/>
		<path class="st1" d="M147.7,269c-1.4,0-2.6,1.3-2.6,2.6c0,1.3,1.3,2.5,2.6,2.5c1.3,0,2.7-1.1,2.7-2.5
			C150.4,270.3,149.1,269,147.7,269z"/>
		<path class="st1" d="M179.3,269.8c0,2.3,1.1,2.5,1.5,2.6c2.1,0.4,2.3,0.5,2.3,0.9c0,0.5-0.1,0.6-1,0.6c-0.7,0-3.2-0.2-6.3-0.2
			c-2.3,0-3.6,0.2-4.8,0.2c-0.4,0-0.5-0.2-0.5-0.6c0-0.4,0.3-0.5,2.2-0.9c1-0.2,1.8-0.5,1.8-1.8v-18.9c0-1.2-0.1-2-1.7-2
			c-1.4,0-1.7-0.2-1.7-0.8c0-0.5,0.2-0.7,0.8-0.7c1.3,0,2.9,0.2,4.6,0.2c1.4,0,3.6-0.2,5-0.2c0.8,0,1.4,0,1.4,0.7
			c0,0.5-0.5,0.7-2,0.8c-1.3,0.1-1.5,0.6-1.5,1.8v7.1c0,1.1,0.2,1.3,0.8,1.3c5.9,0,8.5-0.2,11-0.2c1,0,1.2-0.7,1.2-1.3v-6.9
			c0-2.1-1.7-1.7-2.7-1.9c-0.4-0.1-0.7-0.3-0.7-0.9c0-0.5,0.3-0.7,1-0.7c1.3,0,2.9,0.2,4.6,0.2c1.4,0,3.6-0.2,5-0.2
			c0.9,0,1.1,0,1.1,0.5c0,0.9-1.8,0.5-2.8,1c-0.4,0.2-0.7,0.6-0.7,1.2v19c0,1.5,0,2.2,1.8,2.5c1.3,0.3,1.6,0.3,1.6,0.9
			c0,0.5-0.3,0.6-1,0.6c-1.2,0-2.5-0.2-4.8-0.2c-3.1,0-5.6,0.2-6.1,0.2c-0.5,0-0.7-0.2-0.7-0.8c0-0.5,0.1-0.5,1.6-0.8
			c2.5-0.3,2.7-0.5,2.7-6.3c0-4.3-0.1-4.5-1.1-4.5h-9c-2.6,0-3,0.1-3,1.1V269.8z"/>
		<path class="st1" d="M216.8,254.6c6.4,0,10.7,4.8,10.7,9.9c0,5.1-4.3,9.9-10.7,9.9c-6.3,0-10.7-4.8-10.7-9.9
			C206.1,259.3,210.5,254.6,216.8,254.6z M216.8,273.1c3.8,0,6.1-2.9,6.1-8.6c0-5.7-2.3-8.6-6.1-8.6c-3.8,0-6.1,2.9-6.1,8.6
			C210.7,270.2,213.1,273.1,216.8,273.1z"/>
		<path class="st1" d="M236,257.3c0-1.7-2.8-0.3-2.8-1.6c0-0.5,0.4-0.6,1.5-0.6c1.8,0,4,0.2,6.2,0.2c2.3,0,4.6,0,6.8-0.2
			c0.5,0,0.8,0.2,0.8,2.4c0,2.3-0.1,2.4-0.5,2.4c-1.2,0-0.3-3.6-6.1-3.6c-1.3,0-1.6,0.3-1.6,1.3v5.1c0,0.4,0.4,0.7,0.6,0.7h1.2
			c2.4,0,2.9-2.3,3.7-2.3c0.2,0,0.4,0.1,0.4,0.7c0,1-0.2,1.8-0.3,2.9c-0.1,1.7,0.1,2.4,0.1,2.6c0,0.4-0.1,0.5-0.5,0.5
			c-0.8,0-0.7-3.2-3.7-3.2H241c-0.2,0-0.6,0.2-0.6,0.8v5.5c0,1.2,0.9,1.5,1.8,1.7c0.9,0.2,1.8,0.1,1.8,0.7c0,0.1-0.1,0.5-0.5,0.5
			c-1.1,0-2.4-0.2-4.9-0.2c-1.6,0-3.3,0.2-4.9,0.2c-0.5,0-0.9,0-0.9-0.5c0-0.7,0.8-0.7,1.5-0.8c0.8-0.1,1.5-0.3,1.5-1.3V257.3z"/>
		<path class="st1" d="M261.7,270.1c-0.3,0.4-0.5,0.8-0.5,1.3c0,0.8,0.4,1,4.3,1c2.8,0,4.3-0.3,5.1-0.9c1.2-1,0.8-3.1,1.5-3.1
			c0.5,0,0.9,0.4,0.9,2.5c0,2.6-0.2,2.8-1,2.8h-13.2c-0.6,0-1.2,0-1.8,0.1c-0.6,0-1.2,0.1-1.8,0.1c-0.6,0-0.8-0.2-0.8-0.5
			c0-0.3,0.1-0.7,0.5-1.3l10.3-13.4c0.6-0.8,1-1.4,1-1.6c0-0.2-0.1-0.3-0.5-0.3h-4.3c-3.3,0-4.5,1.4-5.1,2.4
			c-0.3,0.5-0.5,0.8-0.9,0.8c-0.4,0-0.5-0.1-0.5-0.4c0-0.3,0.1-0.7,0.3-1.3l1.1-3.6c0.1-0.4,0.3-0.6,0.7-0.6c0.4,0,0.5,0.2,0.6,0.6
			c0,0.4,0.2,0.6,0.5,0.6h13.3c0.7,0,0.9,0.3,0.9,0.6c0,0.4-0.3,0.7-0.7,1.3L261.7,270.1z"/>
		<path class="st1" d="M297,258.5c0-1.7-0.5-2.1-1.5-2.2c-0.8-0.1-1.5,0-1.5-0.6c0-0.4,0.2-0.6,0.8-0.6c1,0,1.7,0.2,2.9,0.2
			c1.4,0,2-0.2,2.9-0.2c0.4,0,0.7,0.3,0.7,0.6c0,0.5-0.3,0.7-1.3,0.7c-0.6,0-1.4,0.3-1.4,1.6v8.5c0,5.9-3.3,7.9-7.8,7.9
			c-5.7,0-8.9-1.7-8.9-5v-11.7c0-1.1-0.7-1.3-1.4-1.3c-0.7-0.1-1.4,0-1.4-0.5c0-0.6,0.3-0.8,0.8-0.8c0.9,0,2.1,0.2,4.3,0.2
			c1.7,0,3.4-0.2,4.2-0.2c0.8,0,1,0.2,1,0.6c0,0.5-0.4,0.7-0.9,0.7c-1.6,0-2.3,0.3-2.3,2.2v9.8c0,3.4,1.7,4.6,5.2,4.6
			c3.8,0,5.9-1.6,5.9-6.8V258.5z"/>
		<path class="st1" d="M318.6,254.6c1.8,0,4.9,0.3,5.9,1c0.5,0.4,0.7,3.1,0.7,3.4c0,0.3-0.1,0.4-0.5,0.4c-0.5,0-2.3-3.7-6-3.7
			c-4.6,0-6.8,4.5-6.8,8.7c0,4.3,2.1,8.7,6.8,8.7c3.6,0,5.4-4,6.1-4c0.4,0,0.5,0.3,0.5,0.5c0,0.8-0.5,2.7-0.8,3.4
			c-0.5,0.9-3.5,1.4-5.3,1.4c-8.1,0-11.9-4.5-11.9-9.9C307.3,259.1,311.8,254.6,318.6,254.6z"/>
		<path class="st1" d="M334.1,257.4c0-1-0.6-1-1.3-1.1c-0.6-0.1-1.3,0-1.3-0.6c0-0.5,0.3-0.7,0.9-0.7c1.3,0,2.6,0.2,3.9,0.2
			c1.3,0,2.6-0.2,3.9-0.2c0.4,0,0.7,0.2,0.7,0.6c0,0.6-0.6,0.6-1.3,0.7c-0.6,0.1-1.3,0.1-1.3,1.1v5.6c0,0.4,0.1,0.5,0.3,0.5
			c0.2,0,0.4-0.1,0.7-0.4l5.1-5.1c0.4-0.4,0.8-0.8,0.8-1.2c0-0.8-2.3-0.2-2.3-1.1c0-0.4,0.4-0.6,0.8-0.6c1,0,2.3,0.2,3.6,0.2
			c1.1,0,2.3-0.2,3.5-0.2c0.4,0,0.6,0.2,0.6,0.5c0,1-1.3,0.1-4.4,2.5l-4.3,3.3c-0.4,0.3-0.7,0.5-0.7,0.7c0,0.2,0.3,0.4,0.5,0.7
			l7.9,9c1,1.2,2.3,1.1,2.3,1.7c0,0.3-0.1,0.5-0.7,0.5c-1.3,0-2.7-0.2-4-0.2c-1.3,0-2.9,0.2-4.1,0.2c-0.5,0-0.9-0.1-0.9-0.5
			c0-0.5,0.7-0.6,1.3-0.7c0.5-0.1,0.9-0.1,0.9-0.4c0-0.4-0.4-0.8-2-2.8l-3.7-4.3c-0.3-0.3-0.5-0.5-0.7-0.5c-0.3,0-0.4,0.2-0.4,0.8
			v5.9c0,0.9,0.7,1.1,1.4,1.2c0.7,0.1,1.4,0.2,1.4,0.8c0,0.3-0.3,0.5-0.5,0.5c-1.5,0-2.9-0.2-4.3-0.2c-1.5,0-2.9,0.2-4.3,0.2
			c-0.5,0-0.8-0.3-0.8-0.5c0-0.6,0.8-0.7,1.5-0.8c0.8-0.1,1.5-0.4,1.5-1.2V257.4z"/>
		<path class="st1" d="M364.7,270.9c0,1.1,0.5,1.7,2.4,1.7c4.4,0,5-3.6,5.9-3.6c0.3,0,0.5,0.3,0.5,0.5c0,0.3-0.3,1.3-0.8,3.3
			c-0.2,0.8-0.5,1-1.6,1c-2.1,0-4.2-0.2-6.3-0.2c-2.1,0-4.2,0.2-6.4,0.2c-0.7,0-1.2-0.2-1.2-0.5c0-0.7,0.8-0.7,1.5-0.8
			c0.8-0.1,1.5-0.4,1.5-1.3v-13.8c0-1.1-0.3-1.1-1.3-1.3c-0.7-0.1-1.3-0.1-1.3-0.7c0-0.3,0.3-0.5,1.2-0.5c0.7,0,3,0.2,6.5,0.2
			c2.3,0,4.6-0.2,6.8-0.2c0.4,0,0.6,0.3,0.6,3.6c0,1-0.2,1-0.4,1c-0.7,0-1-3.4-5.2-3.4c-2,0-2.3,0.3-2.3,1.2v4.6
			c0,1,0.2,1.2,1.1,1.2h1.1c2.4,0,2.9-2.3,3.7-2.3c0.2,0,0.4,0.1,0.4,0.7c0,1-0.2,1.8-0.3,2.9c-0.1,1.7,0.1,2.4,0.1,2.6
			c0,0.4-0.1,0.5-0.5,0.5c-0.8,0-0.7-3.2-3.7-3.2h-1c-0.7,0-1,0.3-1,1.2V270.9z"/>
		<path class="st1" d="M382,257c0-0.6-0.6-0.7-1.3-0.7c-0.8,0-1.3-0.1-1.3-0.6c0-0.5,0.3-0.6,1-0.6c0.9,0,2.3,0.2,4.4,0.2
			c2.4,0,3.8-0.2,5-0.2c3.3,0,6,1.5,6,4.6c0,2.9-2.7,4.1-3.8,4.6l4.3,7.4c0.4,0.6,1,1,1.4,1c0.4,0.1,0.7,0.2,0.7,0.6
			c0,0.4-0.3,0.5-0.8,0.5c-0.3,0-1.2-0.1-1.8-0.1c-0.9,0-2,0-2.9,0c-0.2,0-0.3-0.1-0.5-0.3l-3.8-7.4c-0.3-0.6-0.8-1-1.6-1
			c-0.7,0-1,0.3-1,1v5.2c0,1,0.8,1.3,1.5,1.4c0.8,0.1,1.5,0.2,1.5,0.8c0,0.5-0.5,0.5-1.2,0.5c-1,0-2.4-0.2-3.8-0.2
			c-1.5,0-2.9,0.2-4,0.2c-0.7,0-1-0.1-1-0.5c0-0.4,0.8-0.6,1.5-0.7c0.8-0.1,1.5-0.3,1.5-1V257z M386.2,262.9c0,0.7,0.3,1,1.1,1
			c2.3,0,4.5-1.1,4.5-3.7c0-2.1-1.5-3.9-4.1-3.9c-1.1,0-1.5,0.4-1.5,1V262.9z"/>
		<path class="st1" d="M408.8,273.7c-0.8,0-1.7,0-2.5,0.1c-0.8,0-1.7,0.1-2.5,0.1c-0.4,0-0.8-0.1-0.8-0.5c0-0.5,0.8-0.6,1.4-0.8
			c1-0.3,1.8-0.4,1.8-2.9v-11.9c0-1.2-0.5-1.2-1.8-1.4c-0.7-0.1-1.3,0-1.3-0.7c0-0.4,0.3-0.6,0.8-0.6c0.9,0,3.1-0.2,5.8-0.2h4.6
			c2.3,0,6.4,1,6.4,4.5c0,2.7-2.8,3.1-2.8,3.7c0,0.5,3.8,1.2,3.8,4.9c0,3.3-3.2,5.6-7.4,5.6H408.8z M410.3,261.9
			c0,0.7,0.2,1.1,1,1.1c3.5,0,5-1.2,5-3.6c0-2.4-1.6-3.2-4-3.2c-1.7,0-2,0.2-2,0.9V261.9z M410.3,270.4c0,1.8,0.4,2.1,2.5,2.1
			c2.8,0,4.3-1.6,4.3-4.1c0-2.4-1.9-4.2-5-4.2c-1.3,0-1.8,0.3-1.8,1.3V270.4z"/>
		<path class="st1" d="M433.1,267.6c-0.4,0-0.6,0.1-0.9,0.7c-0.3,0.5-1.2,2.8-1.2,3.5c0,0.7,0.8,0.9,1.3,1c0.6,0.1,1.3,0.1,1.3,0.7
			c0,0.3-0.3,0.4-0.8,0.4c-0.8,0-1.4-0.2-2.7-0.2c-1.4,0-2.1,0.2-2.9,0.2c-0.6,0-0.8,0-0.8-0.3c0-0.4,0.7-0.5,1.3-0.9
			c0.7-0.3,1.3-1.5,1.6-2.1l7.4-15.5c0.1-0.3,0.3-0.5,0.7-0.5c0.2,0,0.4,0.3,0.5,0.6l6.1,15.8c1,2.6,2.8,1.8,2.8,2.5
			c0,0.2-0.2,0.4-0.5,0.4c-1.3,0-2.7-0.2-4-0.2c-1.3,0-2.7,0.2-4,0.2c-0.8,0-1-0.2-1-0.5c0-0.4,0.6-0.5,1.2-0.6
			c0.6-0.1,1.2-0.3,1.2-0.8c0-0.4-0.5-2.1-1-3.5c-0.3-0.7-0.5-0.8-0.8-0.8H433.1z M434.5,249.4c0,1.2-1,2.2-2.2,2.2
			c-1.1,0-2.2-1.1-2.2-2.2c0-1.1,1-2.2,2.2-2.2C433.4,247.2,434.5,248.3,434.5,249.4z M437,265.9c0.5,0,0.6-0.1,0.6-0.3
			c0-0.2,0-0.5-0.2-0.8l-1.3-3.8c-0.1-0.4-0.3-0.6-0.5-0.6c-0.2,0-0.4,0.2-0.6,0.7l-1.6,3.6c-0.1,0.3-0.3,0.6-0.3,0.8
			c0,0.3,0.2,0.3,0.7,0.3H437z M443,249.4c0,1.2-1,2.2-2.2,2.2c-1.2,0-2.2-1-2.2-2.2c0-1.2,1-2.2,2.2-2.2
			C442,247.2,443,248.3,443,249.4z"/>
		<path class="st1" d="M462.7,254.6c1.8,0,4.9,0.3,5.8,1c0.5,0.4,0.7,3.1,0.7,3.4c0,0.3-0.1,0.4-0.5,0.4c-0.5,0-2.3-3.7-6-3.7
			c-4.6,0-6.8,4.5-6.8,8.7c0,4.3,2.1,8.7,6.8,8.7c3.6,0,5.4-4,6.1-4c0.4,0,0.5,0.3,0.5,0.5c0,0.8-0.5,2.7-0.8,3.4
			c-0.5,0.9-3.5,1.4-5.3,1.4c-8.1,0-11.9-4.5-11.9-9.9C451.4,259.1,456,254.6,462.7,254.6z"/>
		<path class="st1" d="M478.2,257.4c0-1-0.6-1-1.3-1.1c-0.6-0.1-1.3,0-1.3-0.6c0-0.5,0.3-0.7,0.9-0.7c1.3,0,2.6,0.2,3.9,0.2
			c1.3,0,2.6-0.2,3.9-0.2c0.4,0,0.7,0.2,0.7,0.6c0,0.6-0.6,0.6-1.3,0.7c-0.6,0.1-1.3,0.1-1.3,1.1v5.6c0,0.4,0.1,0.5,0.3,0.5
			c0.2,0,0.4-0.1,0.7-0.4l5.1-5.1c0.4-0.4,0.8-0.8,0.8-1.2c0-0.8-2.3-0.2-2.3-1.1c0-0.4,0.4-0.6,0.8-0.6c1,0,2.3,0.2,3.5,0.2
			c1.1,0,2.3-0.2,3.5-0.2c0.4,0,0.6,0.2,0.6,0.5c0,1-1.3,0.1-4.4,2.5l-4.3,3.3c-0.4,0.3-0.7,0.5-0.7,0.7c0,0.2,0.2,0.4,0.5,0.7
			l7.9,9c1,1.2,2.3,1.1,2.3,1.7c0,0.3-0.1,0.5-0.7,0.5c-1.3,0-2.7-0.2-4-0.2c-1.3,0-2.9,0.2-4.1,0.2c-0.5,0-0.9-0.1-0.9-0.5
			c0-0.5,0.7-0.6,1.3-0.7c0.5-0.1,0.9-0.1,0.9-0.4c0-0.4-0.4-0.8-2-2.8l-3.7-4.3c-0.3-0.3-0.5-0.5-0.7-0.5c-0.3,0-0.4,0.2-0.4,0.8
			v5.9c0,0.9,0.7,1.1,1.4,1.2c0.7,0.1,1.4,0.2,1.4,0.8c0,0.3-0.2,0.5-0.5,0.5c-1.5,0-2.9-0.2-4.3-0.2c-1.5,0-2.9,0.2-4.3,0.2
			c-0.5,0-0.8-0.3-0.8-0.5c0-0.6,0.8-0.7,1.5-0.8c0.8-0.1,1.5-0.4,1.5-1.2V257.4z"/>
		<path class="st1" d="M508.8,270.9c0,1.1,0.5,1.7,2.4,1.7c4.4,0,5-3.6,5.8-3.6c0.3,0,0.5,0.3,0.5,0.5c0,0.3-0.3,1.3-0.8,3.3
			c-0.2,0.8-0.5,1-1.6,1c-2.1,0-4.2-0.2-6.4-0.2c-2.1,0-4.2,0.2-6.3,0.2c-0.7,0-1.2-0.2-1.2-0.5c0-0.7,0.8-0.7,1.5-0.8
			c0.8-0.1,1.5-0.4,1.5-1.3v-13.8c0-1.1-0.3-1.1-1.3-1.3c-0.7-0.1-1.3-0.1-1.3-0.7c0-0.3,0.3-0.5,1.2-0.5c0.7,0,3,0.2,6.5,0.2
			c2.3,0,4.6-0.2,6.8-0.2c0.4,0,0.6,0.3,0.6,3.6c0,1-0.2,1-0.4,1c-0.7,0-1-3.4-5.2-3.4c-2,0-2.3,0.3-2.3,1.2v4.6
			c0,1,0.2,1.2,1.1,1.2h1.1c2.4,0,2.9-2.3,3.7-2.3c0.2,0,0.4,0.1,0.4,0.7c0,1-0.2,1.8-0.2,2.9c-0.1,1.7,0.1,2.4,0.1,2.6
			c0,0.4-0.1,0.5-0.5,0.5c-0.8,0-0.7-3.2-3.7-3.2h-1c-0.7,0-1,0.3-1,1.2V270.9z"/>
		<path class="st1" d="M526.1,257c0-0.6-0.6-0.7-1.3-0.7c-0.8,0-1.3-0.1-1.3-0.6c0-0.5,0.3-0.6,1-0.6c0.9,0,2.3,0.2,4.4,0.2
			c2.4,0,3.8-0.2,5-0.2c3.3,0,6,1.5,6,4.6c0,2.9-2.7,4.1-3.8,4.6l4.3,7.4c0.4,0.6,1,1,1.4,1c0.4,0.1,0.7,0.2,0.7,0.6
			c0,0.4-0.3,0.5-0.8,0.5c-0.3,0-1.2-0.1-1.8-0.1c-0.9,0-2,0-2.9,0c-0.2,0-0.3-0.1-0.5-0.3l-3.8-7.4c-0.3-0.6-0.8-1-1.6-1
			c-0.7,0-1,0.3-1,1v5.2c0,1,0.8,1.3,1.5,1.4c0.8,0.1,1.5,0.2,1.5,0.8c0,0.5-0.5,0.5-1.2,0.5c-1,0-2.4-0.2-3.8-0.2
			c-1.5,0-2.9,0.2-4,0.2c-0.7,0-1-0.1-1-0.5c0-0.4,0.8-0.6,1.5-0.7c0.8-0.1,1.5-0.3,1.5-1V257z M530.3,262.9c0,0.7,0.3,1,1.1,1
			c2.3,0,4.5-1.1,4.5-3.7c0-2.1-1.5-3.9-4.1-3.9c-1.1,0-1.5,0.4-1.5,1V262.9z"/>
	</g>
	<g>
		<path class="st1" d="M229.3,325.2c-0.1,0.2-0.3,0.3-0.5,0.3c-0.3,0-0.5-0.2-0.6-0.4l-12.1-23.5c-0.3-0.5-0.5-0.7-0.9-0.9
			c-1-0.4-1.2-0.5-1.2-1c0-0.5,0.5-0.5,1-0.5c1.6,0,2.3,0.2,3.6,0.2s2.8-0.2,4-0.2c1,0,1.5,0.1,1.5,0.8c0,0.4-1.4,0.6-2,0.7
			c-0.3,0-0.4,0.4-0.4,0.7c0,0.4,0.2,0.7,0.3,1l8.4,16.9c0,0.1,0.1,0.2,0.3,0.2c0.2,0,0.2-0.1,0.3-0.2l3-5c0.2-0.3,0.3-0.5,0.3-0.8
			c0-0.2-0.1-0.3-0.1-0.5l-5.5-10.9c-0.3-0.7-0.8-1.1-1.4-1.5c-1.2-0.6-1.7-0.3-1.7-1c0-0.3,0.2-0.5,0.4-0.5c0.7,0,2.2,0.2,4.7,0.2
			c1.8,0,3.1-0.2,4.3-0.2c1.3,0,1.3,0.2,1.3,0.9c0,0.6-2.2,0.3-2.5,0.6c-0.1,0.1-0.2,0.3-0.2,0.5c0,0.2,0.1,0.4,0.2,0.5l3.2,6.7
			c0.1,0.2,0.2,0.3,0.3,0.3c0.2,0,0.2-0.1,0.3-0.2l2.5-4.9c0.3-0.7,0.6-1.6,0.6-2.1c0-0.3-0.2-0.5-0.7-0.7c-1.2-0.4-1.8-0.3-1.8-1
			c0-0.5,0.5-0.5,0.9-0.5c0.8,0,2.8,0.2,3.5,0.2c0.8,0,1.5-0.2,2.3-0.2c0.8,0,1,0.1,1,0.7c0,0.4-1,0.6-1.6,0.8
			c-1,0.4-1.2,0.5-1.5,1.2l-4.2,8.6c-0.1,0.1-0.1,0.3-0.1,0.4c0,0.1,0.1,0.2,0.2,0.4l3.5,7.4c0.1,0.2,0.3,0.3,0.4,0.3
			c0.2,0,0.3-0.1,0.3-0.3l6.3-14.3c0.5-1.1,1-2.5,1-2.9c0-0.3-0.3-0.5-0.9-0.7c-0.9-0.4-1.5-0.5-1.5-1c0-0.5,0.7-0.5,1.1-0.5
			c0.5,0,1.6,0.2,2.5,0.2c1,0,1.9-0.2,2.8-0.2c0.5,0,0.9,0,0.9,0.6c0,0.5-0.5,0.6-1.3,0.9c-0.8,0.3-1.3,0.9-2,2.4l-10.1,21.9
			c-0.1,0.3-0.3,0.5-0.5,0.5c-0.3,0-0.7-0.1-0.8-0.4l-4.6-9.2c-0.1-0.2-0.2-0.3-0.3-0.3c-0.2,0-0.3,0.1-0.4,0.3L229.3,325.2z"/>
		<path class="st1" d="M264.4,308.4c0-1-0.6-1-1.3-1.1c-0.6-0.1-1.3,0-1.3-0.6c0-0.5,0.3-0.7,0.9-0.7c1.3,0,2.6,0.2,3.9,0.2
			c1.3,0,2.6-0.2,3.9-0.2c0.4,0,0.7,0.2,0.7,0.6c0,0.6-0.6,0.6-1.3,0.7c-0.6,0.1-1.3,0.1-1.3,1.1v14c0,0.9,0.7,1.1,1.4,1.2
			c0.7,0.1,1.4,0.1,1.4,0.7c0,0.4-0.3,0.6-0.5,0.6c-1.5,0-2.9-0.2-4.3-0.2c-1.5,0-2.9,0.2-4.3,0.2c-0.5,0-0.8-0.2-0.8-0.5
			c0-0.6,0.8-0.7,1.5-0.8c0.8-0.1,1.5-0.4,1.5-1.2V308.4z"/>
		<path class="st1" d="M288.9,321.8c0,1.1,0.5,1.7,2.4,1.7c4.4,0,5-3.6,5.9-3.6c0.3,0,0.5,0.3,0.5,0.5c0,0.3-0.3,1.3-0.8,3.3
			c-0.2,0.8-0.5,1-1.6,1c-2.1,0-4.2-0.2-6.3-0.2c-2.1,0-4.2,0.2-6.4,0.2c-0.7,0-1.2-0.2-1.2-0.5c0-0.7,0.8-0.7,1.5-0.8
			c0.8-0.1,1.5-0.4,1.5-1.3v-13.8c0-1.1-0.3-1.1-1.3-1.3c-0.7-0.1-1.3-0.1-1.3-0.7c0-0.3,0.3-0.5,1.2-0.5c0.7,0,3,0.2,6.5,0.2
			c2.3,0,4.6-0.2,6.8-0.2c0.4,0,0.6,0.3,0.6,3.6c0,1-0.2,1-0.4,1c-0.7,0-1-3.4-5.2-3.4c-2,0-2.3,0.3-2.3,1.2v4.6
			c0,1,0.2,1.2,1.1,1.2h1.1c2.4,0,2.9-2.3,3.7-2.3c0.2,0,0.4,0.1,0.4,0.7c0,1-0.2,1.8-0.3,2.9c-0.1,1.7,0.1,2.4,0.1,2.6
			c0,0.4-0.1,0.5-0.5,0.5c-0.8,0-0.7-3.2-3.7-3.2h-1c-0.7,0-1,0.3-1,1.2V321.8z"/>
		<path class="st1" d="M311.6,308.3c0-0.9-0.8-1-1.7-1c-0.8-0.1-1.7,0-1.7-0.6c0-0.5,0.3-0.7,0.8-0.7c1,0,1.9,0.2,2.9,0.2
			c1,0,1.9-0.2,2.9-0.2c0.5,0,0.7,0.1,1,0.4l7.9,8.6c2,2.1,3.1,3.5,3.4,3.5c0.2,0,0.3-0.5,0.3-0.9V309c0-1.3-0.8-1.6-1.7-1.7
			c-0.8-0.1-1.7,0-1.7-0.7c0-0.3,0.3-0.6,0.8-0.6c1.1,0,2.3,0.2,3.4,0.2c1.1,0,2.3-0.2,3.4-0.2c0.4,0,0.7,0.3,0.7,0.6
			c0,0.6-0.8,0.6-1.5,0.7c-0.8,0.1-1.5,0.5-1.5,2v15.2c0,1-0.2,1.5-0.6,1.5c-0.3,0-0.5-0.2-0.8-0.5l-13.8-14.6
			c-0.3-0.3-0.4-0.5-0.6-0.5c-0.2,0-0.3,0.2-0.2,0.5l0.2,7.2c0.1,3.8,0.1,4.7,0.7,5.1c0.5,0.4,1,0.4,1.8,0.5
			c1.1,0.1,1.5,0.2,1.5,0.8c0,0.3-0.2,0.5-0.7,0.5c-1.3,0-2.5-0.2-3.8-0.2c-1.3,0-2.5,0.2-3.6,0.2c-0.8,0-1-0.2-1-0.5
			c0-0.5,0.6-0.6,1.1-0.7c0.6-0.1,1.3-0.1,1.8-0.5c0.4-0.4,0.7-3.3,0.7-6.2V308.3z"/>
	</g>
</g>
</svg>
